# xmcd CD database file
#
# Track frame offsets:
#	150
#	21923
#	118686
#	209716
#
# Disc length: 3737 seconds
#
# Revision: 0
# Processed by: cddbd v1.5.2PL0 Copyright (c) Steve Scherf et al.
# Submitted via: CDex 1.70beta2
#
DISCID=370e9704
DTITLE=The Celestral Communication Orchestra - HR57 I
DYEAR=2001
DGENRE=Jazz
TTITLE0=Amplitude I
TTITLE1=Amplitude II
TTITLE2=Amplitude III
TTITLE3=Amplitude IV
EXTD=YEAR: 2001
EXTT0=
EXTT1=
EXTT2=
EXTT3=
PLAYORDER=
